<?xml version="1.0" standalone="no"?><!DOCTYPE svg PUBLIC "-//W3C//DTD SVG 1.1//EN" "http://www.w3.org/Graphics/SVG/1.1/DTD/svg11.dtd"><svg class="icon" width="200px" height="200.00px" viewBox="0 0 1024 1024" version="1.1" xmlns="http://www.w3.org/2000/svg"><path fill="#505153" d="M633.904588 538.184374v-17.310451c91.67225 0 166.424143-78.165222 166.424143-175.10375C800.328731 248.831645 725.576838 170.666423 633.904588 170.666423v-48.761835c119.076401 0 215.185978 100.44938 215.185978 223.816823 0 98.06005-60.659723 181.637836-145.310269 211.870173a243.857937 243.857937 0 0 1 108.251274 350.158738c76.556081-15.603787 134.582665-86.454734 134.582665-171.885468 0-96.938528-74.751893-175.10375-166.424143-175.10375v-48.761835c119.076401 0 215.185978 100.44938 215.185978 223.816823 0 123.464966-96.060815 223.914347-215.185978 223.914346v-10.776365A243.12651 243.12651 0 0 1 604.20863 1023.998537H243.809907a243.809176 243.809176 0 0 1 0-487.618351h51.492498c-88.649016-42.422797-150.088928-135.752949-150.088929-243.809175 0-147.894646 115.077931-268.190093 257.608775-268.190093 142.482082 0 257.560013 120.295447 257.560013 268.190093 0 108.056227-61.439912 201.386379-150.088928 243.809175h93.915294c10.044938 0 19.992352 0.585142 29.695958 1.804188zM402.773489 511.999269c115.126693 0 208.84694-98.011289 208.84694-219.428258s-93.720247-219.428258-208.798178-219.428258C287.695559 73.142753 193.975311 171.154041 193.975311 292.571011s93.769009 219.428258 208.84694 219.428258z m231.131099 26.185105v31.451384c24.478441 0 47.981646-4.24228 69.875709-12.044174A242.151273 242.151273 0 0 0 633.904588 538.184374z m146.285505 410.769699a244.784412 244.784412 0 0 0 31.841478-41.203751c-10.288747 2.096759-20.967589 3.218281-31.841478 3.218281v37.98547zM295.302405 536.380186c32.719191 15.603787 69.144282 24.380918 107.519846 24.380918 38.375564 0 74.800655-8.77713 107.471085-24.380918H295.302405zM243.809907 585.142021a195.04734 195.04734 0 1 0 0 390.094681h360.398723a195.04734 195.04734 0 1 0 0-390.094681H243.809907z" /></svg>