<?xml version="1.0" standalone="no"?><!DOCTYPE svg PUBLIC "-//W3C//DTD SVG 1.1//EN" "http://www.w3.org/Graphics/SVG/1.1/DTD/svg11.dtd"><svg class="icon" width="200px" height="189.81px" viewBox="0 0 1079 1024" version="1.1" xmlns="http://www.w3.org/2000/svg"><path fill="#6DA6FE" d="M667.4432 497.3056A280.9856 280.9856 0 0 0 768 281.6c0-70.2976-25.7536-134.656-68.4032-183.9616 13.4656-2.9696 27.392-4.5568 41.6768-4.5568 110.6432 0 200.3456 93.7984 200.3456 209.4592 0 115.712-89.7024 209.4592-200.3456 209.4592-26.112 0-50.9952-5.2224-73.8304-14.6944z"  /><path fill="#6DA6FE" d="M204.8 256a256 244.8896 90 1 0 489.7792 0 256 244.8896 90 1 0-489.7792 0Z"  /><path fill="#6DA6FE" d="M742.4 512h123.392a209.408 209.408 0 0 1 9.4208 418.7136A230.4 230.4 0 0 0 742.4 512z"  /><path fill="#6DA6FE" d="M0 512m256 0l358.4 0q256 0 256 256l0 0q0 256-256 256l-358.4 0q-256 0-256-256l0 0q0-256 256-256Z"  /></svg>