<?xml version="1.0" standalone="no"?><!DOCTYPE svg PUBLIC "-//W3C//DTD SVG 1.1//EN" "http://www.w3.org/Graphics/SVG/1.1/DTD/svg11.dtd"><svg class="icon" width="200px" height="200.00px" viewBox="0 0 1024 1024" version="1.1" xmlns="http://www.w3.org/2000/svg"><path fill="#505153" d="M347.0336 611.3792h329.9328V972.8h73.984a51.2 51.2 0 0 0 51.2-51.2v-379.5968l46.0288-4.6592c43.7248-4.4544 79.36-9.8304 104.7552-15.7696 7.1168-1.6896 13.2608-3.3792 18.2784-5.0176-3.8912-16.2816-12.2368-37.0688-24.7296-61.44-26.7264-52.1728-69.5296-115.456-119.3984-175.7184C713.8816 142.5408 590.848 51.2 513.7408 51.2 435.8144 51.2 308.224 143.9232 193.4848 279.808c-51.2 60.672-94.208 123.648-119.6032 174.6944-11.8784 23.9104-19.2512 43.9296-21.8112 58.112 4.9664 2.9696 13.2096 5.4784 23.7056 7.936 24.832 5.7856 58.88 11.0592 100.352 15.4624l45.7216 4.864V921.6a51.2 51.2 0 0 0 51.2 51.2h73.984v-361.4208zM972.8 527.36v-0.8192 0.8192z m-921.6-5.5296l0.0512 0.3072a9.1136 9.1136 0 0 0-0.2048-0.9216l0.1536 0.6144zM398.2336 1024H273.0496a102.4 102.4 0 0 1-102.4-102.4v-334.6944c-84.5824-9.0112-145.5616-22.016-161.792-38.912C-60.8256 475.3408 298.2912 0 513.6384 0c215.4496 0 557.1072 475.392 504.9856 547.9424-12.8 17.8176-76.1344 31.232-165.376 40.3456V921.6a102.4 102.4 0 0 1-102.4 102.4h-125.1328v-361.4208H398.2336V1024z" /></svg>