<?xml version="1.0" standalone="no"?><!DOCTYPE svg PUBLIC "-//W3C//DTD SVG 1.1//EN" "http://www.w3.org/Graphics/SVG/1.1/DTD/svg11.dtd"><svg class="icon" width="200px" height="200.00px" viewBox="0 0 1024 1024" version="1.1" xmlns="http://www.w3.org/2000/svg"><path fill="#505153" d="M188.631579 53.894737a107.789474 107.789474 0 0 0-107.789474 107.789474v700.631578a107.789474 107.789474 0 0 0 107.789474 107.789474h646.736842a107.789474 107.789474 0 0 0 107.789474-107.789474V161.684211a107.789474 107.789474 0 0 0-107.789474-107.789474H188.631579z m0-53.894737h646.736842a161.684211 161.684211 0 0 1 161.684211 161.684211v700.631578a161.684211 161.684211 0 0 1-161.684211 161.684211H188.631579a161.684211 161.684211 0 0 1-161.684211-161.684211V161.684211a161.684211 161.684211 0 0 1 161.684211-161.684211z m53.894737 269.473684v53.894737h538.947368V269.473684H242.526316z m0 431.157895v53.894737h538.947368v-53.894737H242.526316z m0-215.578947v53.894736h538.947368V485.052632H242.526316z" /></svg>