<?xml version="1.0" standalone="no"?><!DOCTYPE svg PUBLIC "-//W3C//DTD SVG 1.1//EN" "http://www.w3.org/Graphics/SVG/1.1/DTD/svg11.dtd"><svg class="icon" width="200px" height="200.00px" viewBox="0 0 1024 1024" version="1.1" xmlns="http://www.w3.org/2000/svg"><path fill="#6DA6FE" d="M255.8464 251.904c0-69.4784 25.0368-128.8192 75.1104-178.0224C380.928 24.576 441.344 0 511.9488 0s130.9184 24.576 180.992 73.8816c50.0736 49.2544 75.1104 108.5952 75.1104 178.0224 0 69.4272-25.088 128.768-75.1104 178.0224-50.0736 49.3056-110.3872 73.9328-180.992 73.8816-70.656 0-130.9696-24.6272-180.992-73.8816-50.0736-49.2032-75.1104-108.544-75.1104-178.0224z m477.2864 771.7888h-442.368c-58.1632 0-108.2368-20.6336-150.1184-61.8496C98.7136 920.576 77.7728 871.3728 77.7728 814.08c0-58.0096 20.9408-107.6224 62.8736-148.8896 41.8816-41.216 91.9552-61.8496 150.1184-61.8496h442.368c58.2144 0 108.2368 20.6336 150.1696 61.8496 41.8816 41.2672 62.8224 90.88 62.8736 148.8896 0 57.2416-20.992 106.496-62.8736 147.712-41.984 41.216-92.0064 61.7984-150.1696 61.8496z"  /></svg>