<?xml version="1.0" standalone="no"?><!DOCTYPE svg PUBLIC "-//W3C//DTD SVG 1.1//EN" "http://www.w3.org/Graphics/SVG/1.1/DTD/svg11.dtd"><svg class="icon" width="200px" height="200.00px" viewBox="0 0 1024 1024" version="1.1" xmlns="http://www.w3.org/2000/svg"><path fill="#505153" d="M301.521455 275.549091c0 56.878545 20.247273 104.866909 61.346909 145.221818 41.146182 40.494545 90.112 60.509091 148.200727 60.509091 58.088727 0 107.054545-19.968 148.200727-60.462545 41.099636-40.448 61.346909-88.436364 61.346909-145.221819 0-56.878545-20.247273-104.866909-61.346909-145.314909-41.146182-40.494545-90.112-60.509091-148.200727-60.462545-58.088727 0-107.054545 20.014545-148.200727 60.509091-41.099636 40.354909-61.346909 88.343273-61.346909 145.221818z m-46.545455 0c0-69.399273 25.274182-129.349818 75.264-178.455273C380.043636 48.081455 440.785455 23.319273 511.069091 23.272727c70.283636 0 130.978909 24.762182 180.875636 73.821091 49.943273 49.152 75.217455 109.102545 75.217455 178.455273 0 69.352727-25.274182 129.303273-75.217455 178.455273-49.896727 49.058909-110.592 73.867636-180.875636 73.821091-70.283636 0-130.978909-24.808727-180.829091-73.821091C280.203636 404.898909 254.976 344.901818 254.976 275.549091z m577.349818 628.829091c33.698909-33.140364 50.222545-71.959273 50.222546-117.713455 0-46.498909-16.570182-85.643636-50.222546-118.737454-33.745455-33.233455-73.355636-49.570909-120.180363-49.570909H309.992727c-46.731636 0-86.388364 16.337455-120.133818 49.570909-33.698909 33.093818-50.222545 72.238545-50.222545 118.690909 0 45.800727 16.523636 84.573091 50.222545 117.76 33.745455 33.186909 73.355636 49.524364 120.180364 49.524363h402.152727c46.731636 0 86.388364-16.384 120.133818-49.570909zM712.145455 1000.401455H309.992727c-59.019636 0-110.359273-21.178182-152.808727-62.929455C114.688 895.674182 93.137455 844.986182 93.090909 786.664727c0-59.019636 21.597091-110.08 64.093091-151.924363 42.449455-41.751273 93.835636-62.929455 152.855273-62.929455h402.152727c59.019636 0 110.359273 21.178182 152.808727 62.929455 42.496 41.844364 64.046545 92.904727 64.093091 151.924363 0 58.321455-21.597091 109.056-64.139636 150.853818-42.402909 41.751273-93.789091 62.882909-152.808727 62.929455z" /></svg>