<?xml version="1.0" standalone="no"?><!DOCTYPE svg PUBLIC "-//W3C//DTD SVG 1.1//EN" "http://www.w3.org/Graphics/SVG/1.1/DTD/svg11.dtd"><svg class="icon" width="200px" height="200.00px" viewBox="0 0 1024 1024" version="1.1" xmlns="http://www.w3.org/2000/svg"><path fill="#6DA6FE" d="M111.660646 254.07488V98.7136L28.634726 76.43136A38.62528 38.62528 0 0 1 48.664166 1.76128L194.604646 40.87808a38.62528 38.62528 0 0 1-6.84032 75.85792v58.04032a83.1488 83.1488 0 0 1 5.77536-0.2048h747.80672a81.92 81.92 0 0 1 80.896 94.78144l-72.21248 454.4512a81.92 81.92 0 0 1-80.93696 69.05856H193.539686a81.92 81.92 0 0 1-81.92-81.92V256.49152l0.04096-2.41664z m437.61664 384.2048l171.25376-154.54208H378.023526l171.25376 154.54208z m-95.15008-347.7504v193.20832h190.30016V290.52928h-190.30016zM359.018086 986.07104c-52.55168 0-95.15008-34.6112-95.15008-77.29152S306.425446 831.488 359.018086 831.488c52.51072 0 95.10912 34.6112 95.10912 77.29152s-42.5984 77.29152-95.10912 77.29152z m380.5184 0c-52.51072 0-95.10912-34.6112-95.10912-77.29152s42.5984-77.29152 95.15008-77.29152 95.15008 34.6112 95.15008 77.29152-42.5984 77.29152-95.15008 77.29152z" /></svg>