<?xml version="1.0" standalone="no"?><!DOCTYPE svg PUBLIC "-//W3C//DTD SVG 1.1//EN" "http://www.w3.org/Graphics/SVG/1.1/DTD/svg11.dtd"><svg t="1542612143552" class="icon" style="" viewBox="0 0 1024 1024" version="1.1" xmlns="http://www.w3.org/2000/svg" p-id="1393" xmlns:xlink="http://www.w3.org/1999/xlink" width="200" height="200"><defs><style type="text/css"></style></defs><path d="M835.623385 328.782769c0-34.067692-27.569231-61.636923-61.636923-61.636923H496.64c-34.067692 0-61.676308 27.569231-61.676308 61.636923v62.897231h-30.798769V328.782769A92.475077 92.475077 0 0 1 496.600615 236.307692h277.385847A92.475077 92.475077 0 0 1 866.461538 328.782769v339.062154h-30.838153v-339.101538zM866.461538 667.844923V669.538462h-78.76923v-39.384616h47.931077V328.782769c0-34.067692-27.569231-61.636923-61.636923-61.636923H496.64c-34.067692 0-61.676308 27.569231-61.676308 61.636923v62.897231h-30.798769V328.782769A92.475077 92.475077 0 0 1 496.600615 236.307692h277.385847A92.475077 92.475077 0 0 1 866.461538 328.782769v339.062154z" p-id="1394" fill="#FF7584"></path><path d="M188.376615 533.228308l122.604308-142.808616h104.251077l19.692308-30.838154H296.802462L157.538462 521.846154v176.836923h60.573538v-30.798769h-29.735385v-134.616616z m-7.483077 8.664615l7.483077-20.086154v11.421539l-7.483077 8.664615zM320.196923 379.667692l-23.394461 10.752h14.178461l9.216-10.752z m0 0l-23.394461 10.752h14.178461l9.216-10.752z m95.035077 10.752l19.692308-30.838154H296.802462L157.538462 521.846154v176.836923h60.573538v-30.798769h-29.735385v-134.616616l122.604308-142.808615h104.251077z m-226.855385 131.387077l-7.483077 20.086154 7.483077-8.664615v-11.421539z m0 176.836923L157.538462 667.844923h30.838153v30.798769z" p-id="1395" fill="#FF7584"></path><path d="M309.169231 390.419692h82.392615c40.487385 0 74.200615 31.350154 74.200616 71.168v42.653539c0 38.203077-31.153231 68.923077-71.68 71.128615H250.013538v-61.676308h14.769231l44.386462-92.435692v-30.838154z m-59.155693 154.112h144.068924c22.961231-1.260308 40.841846-18.904615 40.841846-40.290461V461.587692c0-22.291692-19.416615-40.329846-43.362462-40.329846H309.169231l-44.386462 92.475077h-14.769231v61.636923h144.068924c40.526769-2.166154 71.68-32.886154 71.68-71.128615V461.587692c0-39.817846-33.713231-71.168-74.200616-71.168H309.169231v61.636923h82.392615c7.404308 0 12.563692 4.804923 12.563692 9.531077v42.653539c0 4.529231-4.686769 9.137231-11.69723 9.531077l-127.606154-0.039385-14.808616 30.798769z" p-id="1396" fill="#FF7584"></path><path d="M342.488615 729.481846a61.636923 61.636923 0 1 0 0-123.273846 61.636923 61.636923 0 0 0 0 123.273846z m0 30.798769a92.475077 92.475077 0 1 1 0-184.910769 92.475077 92.475077 0 0 1 0 184.910769z" p-id="1397" fill="#FF7584"></path><path d="M404.086154 698.683077v-30.838154h184.989538v30.798769z" p-id="1398" fill="#FF7584"></path><path d="M650.712615 729.481846a61.636923 61.636923 0 1 0 0-123.273846 61.636923 61.636923 0 0 0 0 123.273846z m0 30.798769a92.475077 92.475077 0 1 1 0-184.910769 92.475077 92.475077 0 0 1 0 184.910769z" p-id="1399" fill="#FF7584"></path><path d="M512 1004.307692C240.088615 1004.307692 19.692308 783.911385 19.692308 512S240.088615 19.692308 512 19.692308 1004.307692 240.088615 1004.307692 512 783.911385 1004.307692 512 1004.307692z m0-39.384615c250.131692 0 452.923077-202.791385 452.923077-452.923077S762.131692 59.076923 512 59.076923 59.076923 261.868308 59.076923 512 261.868308 964.923077 512 964.923077z" p-id="1400" fill="#FF7584"></path></svg>