<?xml version="1.0" standalone="no"?><!DOCTYPE svg PUBLIC "-//W3C//DTD SVG 1.1//EN" "http://www.w3.org/Graphics/SVG/1.1/DTD/svg11.dtd"><svg t="1542787824743" class="icon" style="" viewBox="0 0 1024 1024" version="1.1" xmlns="http://www.w3.org/2000/svg" p-id="1218" xmlns:xlink="http://www.w3.org/1999/xlink" width="200" height="200"><defs><style type="text/css"></style></defs><path d="M413.972757 637.453838l-110.605838 110.605838 51.961081 51.961081c7.749189 7.749189 15.844324 7.749189 23.939459-0.359784l88.423784-88.409946c4.220541-4.220541 6.697514-8.800865 7.223352-13.561081 0.345946-6.697514-8.634811-20.258595-26.956109-40.683243l16.204109-8.454919c20.078703 23.593514 30.124973 39.631568 30.470919 48.432432-0.166054 7.569297-4.040649 15.318486-11.084109 23.067676l-95.467243 95.467243c-14.266811 14.266811-28.713514 13.920865-43.146378-0.525838l-92.47827-92.464432 12.689297-12.689297 26.070486 26.070486 97.750487-97.750486-45.969298-45.969298-117.483243 117.483244-12.315675-12.329514 130.324756-130.352432 70.448433 70.46227z m-3.348757-148.825946l16.384-7.223351c5.286054 10.931892 9.686486 21.670054 13.381189 32.06227l35.577081-35.577081-30.816865-30.830703 13.035244-13.035243 30.816865 30.830702 59.00454-59.00454 12.315676 12.315676-58.990703 59.018378 11.443892 11.443892c8.108973 8.800865 15.332324 17.435676 21.490162 26.070486l72.745514-72.745513 12.149621 12.149621-65.522162 65.522163c33.999568 16.743784 76.440216 13.740973 127.349622-8.980757l4.040648 18.127567c-54.936216 21.863784-101.265297 23.441297-139.319351 4.428109 8.288865 14.958703 13.561081 29.751351 15.858162 44.377946 3.874595 28.173838-3.528649 60.582054-22.361946 97.390702l-17.615567-3.874594c18.307459-36.628757 25.876757-67.805405 22.182054-93.350054a129.563676 129.563676 0 0 0-13.201298-35.051244l-65.522162 65.522162-12.149621-12.149621 68.165189-68.165189c-5.991784-8.800865-13.215135-17.435676-21.31027-26.236541l-11.45773-11.443892-42.094703 42.094703c4.054486 16.729946 5.991784 32.394378 5.465946 47.020973l-20.078703 1.411459c1.757405-29.945081-5.286054-60.595892-20.964324-92.118486z m200.261189-129.798919l16.384-5.465946c8.620973 23.773405 13.727135 46.495135 15.664433 68.511135l-17.615568 2.822919c-1.231568-20.964324-5.977946-42.980324-14.432865-65.868108z m79.083243-13.561081a336.038054 336.038054 0 0 0-50.203675-2.297081l0.179892-15.318487c12.675459-1.411459 29.239351-1.065514 49.843892 0.871784l0.179891 16.743784z m-36.462702 57.579243c12.869189-1.577514 25.710703-2.463135 38.566054-2.988973a238.951784 238.951784 0 0 0-15.498379-36.282811l15.498379-6.337729a236.198054 236.198054 0 0 1 18.321297 42.274594c14.626595-0.179892 29.059459 0.166054 43.506162 1.231568l1.051676 19.013189a654.363676 654.363676 0 0 0-39.437838-2.103351c5.618162 27.468108 5.092324 54.424216-2.131027 81.006702l-19.013189-3.51481c7.389405-25.364757 8.275027-51.255351 2.629189-77.671784-14.778811 0-29.059459 0.885622-42.440649 2.283243l-1.051675-16.909838z m-65.342271-101.625081c8.634811 3.348757 17.781622 7.223351 27.814055 11.983568l33.127783-33.113946 12.149622 12.149621-81.546378 81.546379-12.149622-12.149622 36.102919-36.116757a215.04 215.04 0 0 0-26.596324-8.966919l11.097945-15.332324z m106.385298-22.182054c2.809081 5.632 5.811892 11.097946 8.275027 16.370162 22.195892 13.740973 43.312432 23.953297 63.404973 30.650811-8.814703-25.710703-23.773405-50.189838-45.44346-73.271351l-26.23654 26.250378zM515.404108 1020.485189c-278.943135 0-505.081081-226.124108-505.081081-505.081081 0-278.943135 226.137946-505.081081 505.081081-505.081081 278.956973 0 505.081081 226.137946 505.081081 505.081081 0 278.956973-226.124108 505.081081-505.081081 505.081081z m0-27.675675c263.666162 0 477.405405-213.739243 477.405406-477.405406 0-263.666162-213.739243-477.405405-477.405406-477.405405-263.666162 0-477.405405 213.739243-477.405405 477.405405 0 263.666162 213.739243 477.405405 477.405405 477.405406z m0-48.432433c-236.903784 0-428.972973-192.055351-428.972973-428.972973 0-236.903784 192.069189-428.972973 428.972973-428.972973 236.917622 0 428.972973 192.069189 428.972973 428.972973 0 236.917622-192.055351 428.972973-428.972973 428.972973z m255.930811-599.468973c-19.193081-6.157838-38.745946-14.806486-58.644757-25.890594 3.168865 9.506595 5.272216 18.681081 7.04346 27.481945l-17.79546-1.591351c-7.043459-31.702486-24.659027-66.227892-53.358703-103.382486l14.792649-10.572108c8.441081 11.277838 15.67827 22.016 22.182054 32.408216l49.497946-49.497946 12.315676 12.329513-14.944865 14.972541c26.928432 29.059459 44.723892 59.184432 53.358703 90.707027 26.236541 6.171676 50.895568 6.517622 73.617297 1.051676l3.694703 18.501189c-23.067676 5.106162-47.546811 4.566486-73.271352-1.41146 4.054486 26.250378 2.297081 53.372541-5.272216 81.020541l-18.681081-4.234379c8.814703-28.519784 10.752-55.821838 5.465946-81.892324zM286.152649 521.395892l-10.918054 35.092757-21.213406-30.000433-36.753297 0.470487 21.974486-29.474595-11.803675-34.802162 34.816 11.803676 29.460756-21.974487-0.470486 36.753297 30.000432 21.213406-35.092756 10.918054z m305.622486 302.91027l-10.918054 35.092757-21.227243-30.01427-36.753297 0.470486 21.988324-29.460757-11.803676-34.802162 34.816 11.803676 29.446919-21.988324-0.470486 36.753297 30.028108 21.227243-35.106595 10.904216z m146.764108-88.077838l-10.904216 35.106595-21.227243-30.01427-36.753298 0.470486 21.988325-29.460757-11.803676-34.802162 34.802162 11.803676 29.460757-21.988324-0.470486 36.753297 30.01427 21.227243-35.106595 10.904216z m78.280649-136.994594l-10.904216 35.106594-21.227244-30.000432-36.753297 0.470486 21.974487-29.474594-11.803676-34.802162 34.816 11.803675 29.460757-21.974486-0.470487 36.753297 30.01427 21.213406-35.106594 10.918054zM355.328 355.355676l-10.904216 35.092756-21.213406-30.000432-36.753297 0.470486 21.974487-29.474594-11.803676-34.802162 34.816 11.803675 29.460757-21.974486-0.470487 36.753297 30.000433 21.213406-35.092757 10.918054z m152.216216-69.18919l-10.904216 35.092757-21.213405-30.000432-36.753298 0.470486 21.974487-29.474594-11.803676-34.802162 34.816 11.803675 29.460757-21.974486-0.470487 36.753297 30.000433 21.213405-35.092757 10.918054z m7.859892 644.386595c229.279135 0 415.135135-185.856 415.135135-415.135135 0-229.265297-185.856-415.135135-415.135135-415.135135-229.265297 0-415.135135 185.869838-415.135135 415.135135 0 229.279135 185.869838 415.135135 415.135135 415.135135z" p-id="1219" fill="#979797"></path></svg>