<?xml version="1.0" standalone="no"?><!DOCTYPE svg PUBLIC "-//W3C//DTD SVG 1.1//EN" "http://www.w3.org/Graphics/SVG/1.1/DTD/svg11.dtd"><svg class="icon" width="200px" height="160.00px" viewBox="0 0 1280 1024" version="1.1" xmlns="http://www.w3.org/2000/svg"><path fill="#6DA6FE" d="M1004.0832 900.7616c1.0752-7.7824 1.6384-15.6672 1.6384-23.7056 0-91.648-71.68-165.9392-160-165.9392-88.3712 0-160 74.24-160 165.888 0 8.0896 0.512 15.9744 1.6384 23.7568H455.5264c1.024-7.7824 1.6384-15.6672 1.6384-23.7056 0-91.648-71.68-165.9392-160-165.9392-88.3712 0-160 74.24-160 165.888 0 8.0896 0.512 15.9744 1.5872 23.7568H0V153.6a153.6 153.6 0 0 1 153.6-153.6h638.8736a153.6 153.6 0 0 1 153.6 153.6v167.8336c48.384-28.2624 85.1456-28.2624 110.2336 0 37.6832 42.3936 223.6928 194.7648 223.6928 239.8208v339.456h-275.9168z m15.5136-465.7664c-16.7424-19.5072-41.2672-19.5072-73.5232 0v224.1024h222.6176v-58.368c0-31.1296-124.0064-136.448-149.0944-165.7344zM297.1648 995.5328c-63.1296 0-114.3296-53.0432-114.3296-118.4768 0-65.4848 51.2-118.528 114.3296-118.528 63.0784 0 114.2784 53.0432 114.2784 118.528 0 65.4336-51.2 118.4768-114.2784 118.4768z m548.5568 0c-63.1296 0-114.2784-53.0432-114.2784-118.4768 0-65.4848 51.2-118.528 114.2784-118.528 63.1296 0 114.2784 53.0432 114.2784 118.528 0 65.4336-51.2 118.4768-114.2784 118.4768z" /></svg>