<?xml version="1.0" standalone="no"?><!DOCTYPE svg PUBLIC "-//W3C//DTD SVG 1.1//EN" "http://www.w3.org/Graphics/SVG/1.1/DTD/svg11.dtd"><svg t="1542611100947" class="icon" style="" viewBox="0 0 1316 1024" version="1.1" xmlns="http://www.w3.org/2000/svg" p-id="1218" xmlns:xlink="http://www.w3.org/1999/xlink" width="257.03125" height="200"><defs><style type="text/css"></style></defs><path d="M1259.300571 171.739429c0-63.268571-51.2-114.468571-114.468571-114.468572H629.76c-63.268571 0-114.541714 51.2-114.541714 114.468572v116.809142h-57.197715V171.739429A171.739429 171.739429 0 0 1 629.686857 0h515.145143A171.739429 171.739429 0 0 1 1316.571429 171.739429v629.686857h-57.270858v-629.76zM1316.571429 801.426286V804.571429h-146.285715v-73.142858h89.014857V171.739429c0-63.268571-51.2-114.468571-114.468571-114.468572H629.76c-63.268571 0-114.541714 51.2-114.541714 114.468572v116.809142h-57.197715V171.739429A171.739429 171.739429 0 0 1 629.686857 0h515.145143A171.739429 171.739429 0 0 1 1316.571429 171.739429v629.686857z" p-id="1219" fill="#38393C"></path><path d="M57.270857 551.424l227.693714-265.216h193.609143l36.571429-57.270857H258.633143L0 530.285714v328.411429h112.493714v-57.197714H57.270857V551.424z m-13.897143 16.091429l13.897143-37.302858v21.211429l-13.897143 16.091429zM302.08 266.24l-43.446857 19.968h26.331428l17.115429-19.968z m0 0l-43.446857 19.968h26.331428l17.115429-19.968z m176.493714 19.968l36.571429-57.270857H258.633143L0 530.285714v328.411429h112.493714v-57.197714H57.270857V551.424l227.693714-265.216h193.609143zM57.270857 530.212571l-13.897143 37.302858 13.897143-16.091429v-21.211429z m0 328.411429L0 801.426286h57.270857v57.197714z" p-id="1220" fill="#38393C"></path><path d="M281.6 286.208h153.014857c75.190857 0 137.801143 58.221714 137.801143 132.169143v79.213714c0 70.948571-57.856 128-133.12 132.096H171.739429V515.145143h27.428571L281.6 343.552v-57.270857zM171.739429 572.416h267.556571c42.642286-2.340571 75.849143-35.108571 75.849143-74.825143V418.377143c0-41.398857-36.059429-74.898286-80.530286-74.898286H281.6L199.168 515.218286h-27.428571v114.468571h267.556571c75.264-4.022857 133.12-61.074286 133.12-132.096V418.377143c0-73.947429-62.610286-132.169143-137.801143-132.169143H281.6v114.468571h153.014857c13.750857 0 23.332571 8.923429 23.332572 17.700572v79.213714c0 8.411429-8.704 16.969143-21.723429 17.700572l-236.982857-0.073143-27.501714 57.197714z" p-id="1221" fill="#38393C"></path><path d="M343.478857 915.894857a114.468571 114.468571 0 1 0 0-228.937143 114.468571 114.468571 0 0 0 0 228.937143z m0 57.197714a171.739429 171.739429 0 1 1 0-343.405714 171.739429 171.739429 0 0 1 0 343.405714z" p-id="1222" fill="#38393C"></path><path d="M457.874286 858.697143v-57.270857h343.552v57.197714z" p-id="1223" fill="#38393C"></path><path d="M915.894857 915.894857a114.468571 114.468571 0 1 0 0-228.937143 114.468571 114.468571 0 0 0 0 228.937143z m0 57.197714a171.739429 171.739429 0 1 1 0-343.405714 171.739429 171.739429 0 0 1 0 343.405714z" p-id="1224" fill="#38393C"></path></svg>