<?xml version="1.0" standalone="no"?><!DOCTYPE svg PUBLIC "-//W3C//DTD SVG 1.1//EN" "http://www.w3.org/Graphics/SVG/1.1/DTD/svg11.dtd"><svg t="1542360199426" class="icon" style="" viewBox="0 0 1024 1024" version="1.1" xmlns="http://www.w3.org/2000/svg" p-id="1573" xmlns:xlink="http://www.w3.org/1999/xlink" width="200" height="200"><defs><style type="text/css"></style></defs><path d="M1010.752 938.24l-290.816-294.208a402.112 402.112 0 0 0-36.224-524.544 397.12 397.12 0 0 0-563.584 0 401.92 401.92 0 0 0 0 566.4 397.12 397.12 0 0 0 521.728 36.544l290.88 294.208c9.536 9.6 25.088 9.6 34.624 0l43.392-43.52a24.704 24.704 0 0 0 0-34.88zM193.92 613.76a295.104 295.104 0 0 1 0-415.872 291.584 291.584 0 0 1 413.888 0 295.104 295.104 0 0 1 0 415.936 291.584 291.584 0 0 1-413.888 0z" fill="#9B9B9B" p-id="1574"></path></svg>